<svg width="30" height="30" viewBox="0 0 30 30" fill="none" xmlns="http://www.w3.org/2000/svg">
<path d="M26.25 16.25H23.75C23.3958 16.25 23.099 16.1302 22.8594 15.8906C22.6198 15.651 22.5 15.3541 22.5 15C22.5 14.6458 22.6198 14.3489 22.8594 14.1094C23.099 13.8698 23.3958 13.75 23.75 13.75H26.25C26.6042 13.75 26.901 13.8698 27.1406 14.1094C27.3802 14.3489 27.5 14.6458 27.5 15C27.5 15.3541 27.3802 15.651 27.1406 15.8906C26.901 16.1302 26.6042 16.25 26.25 16.25ZM20.75 21C20.9583 20.7083 21.2292 20.5416 21.5625 20.5C21.8958 20.4583 22.2083 20.5416 22.5 20.75L24.5 22.25C24.7917 22.4583 24.9583 22.7291 25 23.0625C25.0417 23.3958 24.9583 23.7083 24.75 24C24.5417 24.2916 24.2708 24.4583 23.9375 24.5C23.6042 24.5416 23.2917 24.4583 23 24.25L21 22.75C20.7083 22.5416 20.5417 22.2708 20.5 21.9375C20.4583 21.6041 20.5417 21.2916 20.75 21ZM24.5 7.74998L22.5 9.24998C22.2083 9.45831 21.8958 9.54165 21.5625 9.49998C21.2292 9.45831 20.9583 9.29165 20.75 8.99998C20.5417 8.70831 20.4583 8.39581 20.5 8.06248C20.5417 7.72915 20.7083 7.45831 21 7.24998L23 5.74998C23.2917 5.54165 23.6042 5.45831 23.9375 5.49998C24.2708 5.54165 24.5417 5.70831 24.75 5.99998C24.9583 6.29165 25.0417 6.60415 25 6.93748C24.9583 7.27081 24.7917 7.54165 24.5 7.74998ZM6.25 18.75H5C4.3125 18.75 3.72396 18.5052 3.23438 18.0156C2.74479 17.526 2.5 16.9375 2.5 16.25V13.75C2.5 13.0625 2.74479 12.4739 3.23438 11.9844C3.72396 11.4948 4.3125 11.25 5 11.25H10L14.3438 8.62498C14.7604 8.37498 15.1823 8.37498 15.6094 8.62498C16.0365 8.87498 16.25 9.23956 16.25 9.71873V20.2812C16.25 20.7604 16.0365 21.125 15.6094 21.375C15.1823 21.625 14.7604 21.625 14.3438 21.375L10 18.75H8.75V22.5C8.75 22.8541 8.63021 23.151 8.39062 23.3906C8.15104 23.6302 7.85417 23.75 7.5 23.75C7.14583 23.75 6.84896 23.6302 6.60938 23.3906C6.36979 23.151 6.25 22.8541 6.25 22.5V18.75ZM17.5 19.1875V10.8125C18.0625 11.3125 18.5156 11.9219 18.8594 12.6406C19.2031 13.3594 19.375 14.1458 19.375 15C19.375 15.8541 19.2031 16.6406 18.8594 17.3594C18.5156 18.0781 18.0625 18.6875 17.5 19.1875Z" fill="black"/>
</svg>
