<svg width="30" height="30" viewBox="0 0 30 30" fill="none" xmlns="http://www.w3.org/2000/svg">
<path d="M15 27.5C14.4583 27.5 13.9688 27.3698 13.5312 27.1094C13.0938 26.849 12.75 26.5 12.5 26.0625C11.8125 26.0625 11.224 25.8177 10.7344 25.3281C10.2448 24.8385 10 24.25 10 23.5625V19.125C8.77083 18.3125 7.78646 17.2396 7.04688 15.9062C6.30729 14.5729 5.9375 13.125 5.9375 11.5625C5.9375 9.04167 6.81771 6.90104 8.57812 5.14062C10.3385 3.38021 12.4792 2.5 15 2.5C17.5208 2.5 19.6615 3.38021 21.4219 5.14062C23.1823 6.90104 24.0625 9.04167 24.0625 11.5625C24.0625 13.1667 23.6927 14.625 22.9531 15.9375C22.2135 17.25 21.2292 18.3125 20 19.125V23.5625C20 24.25 19.7552 24.8385 19.2656 25.3281C18.776 25.8177 18.1875 26.0625 17.5 26.0625C17.25 26.5 16.9062 26.849 16.4688 27.1094C16.0312 27.3698 15.5417 27.5 15 27.5ZM12.5 23.5625H17.5V22.4375H12.5V23.5625ZM12.5 21.1875H17.5V20H12.5V21.1875ZM15.9375 17.5V14.125L18.0312 12.0312C18.2188 11.8438 18.3125 11.625 18.3125 11.375C18.3125 11.125 18.2188 10.9062 18.0312 10.7188C17.8438 10.5312 17.625 10.4375 17.375 10.4375C17.125 10.4375 16.9062 10.5312 16.7188 10.7188L15 12.4375L13.2812 10.7188C13.0938 10.5312 12.875 10.4375 12.625 10.4375C12.375 10.4375 12.1562 10.5312 11.9688 10.7188C11.7812 10.9062 11.6875 11.125 11.6875 11.375C11.6875 11.625 11.7812 11.8438 11.9688 12.0312L14.0625 14.125V17.5H15.9375Z" fill="black"/>
</svg>
