<svg width="24" height="24" viewBox="0 0 24 24" fill="none" xmlns="http://www.w3.org/2000/svg">
<path d="M21 8.00001C21.5333 8.00001 22 8.20001 22.4 8.60001C22.8 9.00001 23 9.46668 23 10V12C23 12.1167 22.9875 12.2417 22.9625 12.375C22.9375 12.5083 22.9 12.6333 22.85 12.75L19.85 19.8C19.7 20.1333 19.45 20.4167 19.1 20.65C18.75 20.8833 18.3833 21 18 21H10C9.45 21 8.97917 20.8042 8.5875 20.4125C8.19583 20.0208 8 19.55 8 19V8.82501C8 8.55834 8.05417 8.30418 8.1625 8.06251C8.27083 7.82084 8.41667 7.60834 8.6 7.42501L14.025 2.02501C14.275 1.79168 14.5708 1.65001 14.9125 1.60001C15.2542 1.55001 15.5833 1.60834 15.9 1.77501C16.2167 1.94168 16.4458 2.17501 16.5875 2.47501C16.7292 2.77501 16.7583 3.08334 16.675 3.40001L15.55 8.00001H21ZM4 21C3.45 21 2.97917 20.8042 2.5875 20.4125C2.19583 20.0208 2 19.55 2 19V10C2 9.45001 2.19583 8.97918 2.5875 8.58751C2.97917 8.19584 3.45 8.00001 4 8.00001C4.55 8.00001 5.02083 8.19584 5.4125 8.58751C5.80417 8.97918 6 9.45001 6 10V19C6 19.55 5.80417 20.0208 5.4125 20.4125C5.02083 20.8042 4.55 21 4 21Z" fill="black"/>
</svg>
